<svg width="95" height="35" viewBox="0 0 95 35" fill="none" xmlns="http://www.w3.org/2000/svg">
<path d="M18.6021 0.92041C18.2489 1.04574 17.9014 1.18815 17.5596 1.34766C17.2178 1.49577 16.8874 1.65527 16.5684 1.82617C17.2064 2.37305 17.7191 3.05094 18.1064 3.85986C18.5052 4.66878 18.7046 5.60303 18.7046 6.6626C18.7046 7.52848 18.5907 8.32601 18.3628 9.05518C18.1463 9.78434 17.8387 10.411 17.4399 10.9351C17.0412 11.4591 16.5684 11.8693 16.0215 12.1655C15.486 12.4618 14.8993 12.6099 14.2612 12.6099C13.7941 12.6099 13.3327 12.5301 12.877 12.3706C12.4212 12.2111 12.0111 11.9661 11.6465 11.6357C11.2933 11.3053 11.0028 10.8952 10.7749 10.4053C10.5584 9.90397 10.4502 9.31152 10.4502 8.62793C10.4502 7.86458 10.5755 7.14111 10.8262 6.45752C11.0768 5.76253 11.4129 5.12451 11.8345 4.54346C12.2674 3.95101 12.7687 3.41553 13.3384 2.93701C13.908 2.4471 14.5062 2.01986 15.1328 1.65527C14.8024 1.49577 14.4435 1.37044 14.0562 1.2793C13.6802 1.17676 13.2928 1.12549 12.894 1.12549C12.1991 1.12549 11.4585 1.25651 10.6724 1.51855C9.88623 1.7806 9.10579 2.17367 8.33105 2.69775C7.56771 3.22184 6.83285 3.87126 6.12646 4.646C5.43148 5.40934 4.81055 6.30371 4.26367 7.3291C3.72819 8.35449 3.30094 9.49951 2.98193 10.7642C2.66292 12.0288 2.50342 13.4131 2.50342 14.917C2.50342 16.4437 2.72559 17.8906 3.16992 19.2578C3.61426 20.625 4.26367 21.827 5.11816 22.8638C5.97266 23.9006 7.02083 24.7209 8.2627 25.3247C9.51595 25.9285 10.9458 26.2305 12.5522 26.2305C13.4865 26.2305 14.3979 26.0881 15.2866 25.8032C16.1867 25.5298 17.0355 25.1481 17.833 24.6582C18.6305 24.1569 19.3654 23.5645 20.0376 22.8809C20.7098 22.1859 21.2909 21.4339 21.7808 20.625L22.3105 20.9326C21.7637 21.9466 21.1029 22.8524 20.3281 23.6499C19.5648 24.4474 18.716 25.1253 17.7817 25.6836C16.8475 26.2419 15.8506 26.6691 14.791 26.9653C13.7314 27.2616 12.6434 27.4097 11.5269 27.4097C9.92041 27.4097 8.43929 27.1248 7.0835 26.5552C5.7277 25.9969 4.5542 25.1994 3.56299 24.1626C2.58317 23.1258 1.81413 21.8783 1.25586 20.4199C0.708984 18.9502 0.435547 17.3153 0.435547 15.5151C0.435547 13.8859 0.612142 12.3877 0.965332 11.0205C1.31852 9.64193 1.80273 8.39437 2.41797 7.27783C3.0332 6.1613 3.74528 5.18148 4.5542 4.33838C5.37451 3.48389 6.24609 2.77181 7.16895 2.20215C8.0918 1.62109 9.04313 1.18815 10.0229 0.90332C11.0028 0.607096 11.9598 0.458984 12.894 0.458984C13.4067 0.458984 13.908 0.538737 14.3979 0.698242C14.8993 0.846354 15.3664 1.05143 15.7993 1.31348C16.255 1.09701 16.7108 0.92041 17.1665 0.783691C17.6222 0.646973 18.0666 0.538737 18.4995 0.458984L18.6021 0.92041ZM18.0381 6.62842C18.0381 5.69417 17.8501 4.85107 17.4741 4.09912C17.1095 3.33577 16.6082 2.70915 15.9702 2.21924C15.4119 2.58382 14.8879 3.00537 14.3979 3.48389C13.9194 3.95101 13.5036 4.4751 13.1504 5.05615C12.7972 5.62581 12.5181 6.25244 12.313 6.93604C12.1193 7.60824 12.0225 8.33171 12.0225 9.10645C12.0225 9.5166 12.0737 9.89827 12.1763 10.2515C12.2902 10.5933 12.4497 10.8895 12.6548 11.1401C12.8599 11.3908 13.1105 11.5902 13.4067 11.7383C13.703 11.875 14.0334 11.9434 14.3979 11.9434C15.0132 11.9434 15.5487 11.7668 16.0044 11.4136C16.4601 11.0604 16.8361 10.6217 17.1323 10.0977C17.4399 9.56217 17.6678 8.98682 17.8159 8.37158C17.964 7.74495 18.0381 7.1639 18.0381 6.62842ZM37.418 16.814C36.9508 18.0786 36.5236 19.1382 36.1362 19.9927C35.7603 20.8472 35.39 21.5365 35.0254 22.0605C34.6722 22.5846 34.319 22.9606 33.9658 23.1885C33.6126 23.4163 33.2253 23.5303 32.8037 23.5303C32.291 23.5303 31.8524 23.3537 31.4878 23.0005C31.1232 22.6359 30.8953 22.0776 30.8042 21.3257C30.4396 22.1118 29.9668 22.7555 29.3857 23.2568C28.8047 23.7467 28.0755 23.9917 27.1982 23.9917C26.7311 23.9917 26.2811 23.9062 25.8481 23.7354C25.4266 23.5645 25.0506 23.3024 24.7202 22.9492C24.3898 22.5846 24.1221 22.1289 23.917 21.582C23.7233 21.0352 23.6265 20.3914 23.6265 19.6509C23.6265 18.8989 23.7176 18.1925 23.8999 17.5317C24.0936 16.8709 24.3442 16.2671 24.6519 15.7202C24.9595 15.1619 25.3127 14.6663 25.7114 14.2334C26.1216 13.8005 26.5431 13.4359 26.9761 13.1396C27.409 12.8434 27.842 12.6156 28.2749 12.4561C28.7078 12.2965 29.1066 12.2168 29.4712 12.2168C29.7902 12.2168 30.0978 12.2567 30.394 12.3364C30.6903 12.4162 30.9523 12.5472 31.1802 12.7295C31.4194 12.9004 31.6074 13.134 31.7441 13.4302C31.8923 13.7264 31.9663 14.0967 31.9663 14.541C31.9663 15.0651 31.8638 15.5208 31.6587 15.9082C31.465 16.2956 31.2257 16.6203 30.9409 16.8823C30.6675 17.1444 30.3826 17.3551 30.0864 17.5146C29.8016 17.6742 29.5737 17.7881 29.4028 17.8564L29.1978 17.1899C29.2319 17.1899 29.3573 17.1444 29.5737 17.0532C29.8016 16.9621 30.0352 16.814 30.2744 16.6089C30.5251 16.3924 30.7529 16.119 30.958 15.7886C31.1631 15.4582 31.2656 15.0537 31.2656 14.5752C31.2656 14.0283 31.1118 13.6125 30.8042 13.3276C30.4966 13.0314 30.1035 12.8833 29.625 12.8833C29.2604 12.8833 28.8332 13.0143 28.3433 13.2764C27.8534 13.5384 27.3805 13.9486 26.9248 14.5068C26.4805 15.0651 26.0988 15.7715 25.7798 16.626C25.4722 17.4805 25.3184 18.5002 25.3184 19.6851C25.3184 20.8586 25.5234 21.7529 25.9336 22.3682C26.3551 22.9834 26.9191 23.291 27.6255 23.291C27.9787 23.291 28.3148 23.1942 28.6338 23.0005C28.9642 22.7954 29.2661 22.5277 29.5396 22.1973C29.813 21.8669 30.0579 21.4852 30.2744 21.0522C30.4909 20.6079 30.6789 20.1522 30.8384 19.6851C30.8384 19.3205 30.8783 18.8932 30.958 18.4033C31.0492 17.902 31.1859 17.395 31.3682 16.8823L32.4106 17.2241C32.3537 17.3722 32.2967 17.5659 32.2397 17.8052C32.1828 18.0444 32.1258 18.3065 32.0688 18.5913C32.0233 18.8761 31.9834 19.1724 31.9492 19.48C31.915 19.7762 31.8979 20.0667 31.8979 20.3516C31.8979 21.2402 31.9834 21.8555 32.1543 22.1973C32.3366 22.5277 32.6442 22.6929 33.0771 22.6929C33.3278 22.6929 33.5728 22.6017 33.812 22.4194C34.0627 22.2371 34.3304 21.9181 34.6152 21.4624C34.9001 21.0067 35.2134 20.3914 35.5552 19.6167C35.897 18.8306 36.2957 17.8394 36.7515 16.6431L37.418 16.814ZM43.4507 4.03076C43.4507 4.89665 43.2912 5.8195 42.9722 6.79932C42.6646 7.77913 42.2601 8.79313 41.7588 9.84131C41.2575 10.8895 40.6878 11.9604 40.0498 13.0542C39.4232 14.1366 38.7965 15.2132 38.1699 16.2842C38.0446 17.3438 37.925 18.3976 37.811 19.4458C37.7085 20.494 37.6174 21.4909 37.5376 22.4365C37.4692 23.3708 37.4123 24.231 37.3667 25.0171C37.3211 25.8032 37.2983 26.464 37.2983 26.9995C37.2983 28.0933 37.3496 29.0731 37.4521 29.939C37.5661 30.8162 37.7313 31.5568 37.9478 32.1606C38.1756 32.7759 38.4491 33.243 38.7681 33.562C39.0985 33.8924 39.4858 34.0576 39.9302 34.0576C40.1808 34.0576 40.3916 33.9779 40.5625 33.8184C40.7334 33.6589 40.8758 33.4538 40.9897 33.2031C41.1037 32.9525 41.1891 32.6676 41.2461 32.3486C41.3031 32.0296 41.3429 31.7106 41.3657 31.3916C41.3999 31.0726 41.417 30.7707 41.417 30.4858C41.4284 30.201 41.4341 29.9618 41.4341 29.7681C41.4341 28.492 41.3486 27.2729 41.1777 26.1108C41.0068 24.9601 40.7961 23.9689 40.5454 23.1372H40.4087C40.1353 23.1372 39.8732 23.103 39.6226 23.0347C39.3833 22.9549 39.1668 22.8467 38.9731 22.71C38.7795 22.5732 38.6257 22.4137 38.5117 22.2314C38.3978 22.0492 38.3408 21.8498 38.3408 21.6333C38.3408 21.3257 38.432 21.0636 38.6143 20.8472C38.8079 20.6307 39.0472 20.5225 39.332 20.5225C39.6852 20.5225 40.0213 20.6934 40.3403 21.0352C40.6593 21.3656 40.9499 21.8099 41.2119 22.3682C41.6676 22.1859 42.0835 21.8669 42.4595 21.4111C42.8468 20.9554 43.1943 20.4484 43.502 19.8901C43.8096 19.3205 44.0773 18.7451 44.3052 18.1641C44.5444 17.583 44.7495 17.076 44.9204 16.6431L45.5869 16.814C45.4046 17.3039 45.1882 17.8621 44.9375 18.4888C44.6868 19.104 44.3963 19.7078 44.0659 20.3003C43.7355 20.8813 43.3538 21.4168 42.9209 21.9067C42.4993 22.3853 42.0151 22.7271 41.4683 22.9321C41.6506 23.4106 41.8158 23.929 41.9639 24.4873C42.112 25.0342 42.2373 25.5981 42.3398 26.1792C42.4538 26.7603 42.5392 27.3413 42.5962 27.9224C42.6532 28.5034 42.6816 29.0674 42.6816 29.6143C42.6816 30.3434 42.619 31.0213 42.4937 31.6479C42.3797 32.2746 42.2031 32.8158 41.9639 33.2715C41.736 33.7386 41.4455 34.1032 41.0923 34.3652C40.7505 34.6273 40.346 34.7583 39.8789 34.7583C39.2523 34.7583 38.7168 34.6045 38.2725 34.2969C37.8395 34.0007 37.4749 33.6019 37.1787 33.1006C36.8825 32.5993 36.6489 32.0296 36.478 31.3916C36.3071 30.765 36.1761 30.1213 36.085 29.4604C36.0052 28.7996 35.9539 28.1502 35.9312 27.5122C35.9084 26.8856 35.897 26.3273 35.897 25.8374C35.897 24.7095 35.9482 23.4448 36.0508 22.0435C36.1533 20.6421 36.29 19.2065 36.4609 17.7368C36.6318 16.2671 36.8198 14.8145 37.0249 13.3789C37.2414 11.932 37.4521 10.599 37.6572 9.37988C37.8737 8.14941 38.0788 7.07845 38.2725 6.16699C38.4661 5.25553 38.6313 4.60042 38.7681 4.20166C38.8592 3.91683 38.9788 3.6263 39.127 3.33008C39.2865 3.03385 39.4744 2.76611 39.6909 2.52686C39.9074 2.2876 40.1523 2.09391 40.4258 1.9458C40.7106 1.79769 41.0353 1.72363 41.3999 1.72363C42.0265 1.72363 42.5221 1.92871 42.8867 2.33887C43.2627 2.74902 43.4507 3.31299 43.4507 4.03076ZM39.6055 5.43213C39.5485 5.72835 39.4688 6.17839 39.3662 6.78223C39.2751 7.37467 39.1725 8.08105 39.0586 8.90137C38.9561 9.71029 38.8421 10.6104 38.7168 11.6016C38.5915 12.5814 38.4661 13.5954 38.3408 14.6436C38.9674 13.5726 39.5485 12.5529 40.084 11.5845C40.6195 10.6047 41.0809 9.67611 41.4683 8.79883C41.867 7.91016 42.1803 7.07845 42.4082 6.30371C42.6361 5.51758 42.75 4.77132 42.75 4.06494C42.75 3.60921 42.6475 3.21615 42.4424 2.88574C42.2487 2.55534 41.924 2.39014 41.4683 2.39014C41.1379 2.39014 40.8587 2.50407 40.6309 2.73193C40.4144 2.9598 40.2378 3.23324 40.1011 3.55225C39.9644 3.87126 39.8561 4.20736 39.7764 4.56055C39.708 4.90234 39.651 5.19287 39.6055 5.43213ZM39.0415 21.5991C39.0415 21.8156 39.1725 22.0207 39.4346 22.2144C39.708 22.3966 40.0213 22.4992 40.3745 22.522C40.215 22.089 40.0498 21.7586 39.8789 21.5308C39.7194 21.3029 39.5599 21.189 39.4004 21.189C39.3092 21.189 39.2238 21.2231 39.144 21.2915C39.0757 21.3599 39.0415 21.4624 39.0415 21.5991ZM51.6196 4.03076C51.6196 4.89665 51.4601 5.8195 51.1411 6.79932C50.8335 7.77913 50.429 8.79313 49.9277 9.84131C49.4264 10.8895 48.8568 11.9604 48.2188 13.0542C47.5921 14.1366 46.9655 15.2132 46.3389 16.2842C46.2135 17.3438 46.0939 18.3976 45.98 19.4458C45.8774 20.494 45.7863 21.4909 45.7065 22.4365C45.6382 23.3708 45.5812 24.231 45.5356 25.0171C45.4901 25.8032 45.4673 26.464 45.4673 26.9995C45.4673 28.0933 45.5186 29.0731 45.6211 29.939C45.735 30.8162 45.9002 31.5568 46.1167 32.1606C46.3446 32.7759 46.618 33.243 46.937 33.562C47.2674 33.8924 47.6548 34.0576 48.0991 34.0576C48.3498 34.0576 48.5605 33.9779 48.7314 33.8184C48.9023 33.6589 49.0448 33.4538 49.1587 33.2031C49.2726 32.9525 49.3581 32.6676 49.415 32.3486C49.472 32.0296 49.5119 31.7106 49.5347 31.3916C49.5688 31.0726 49.5859 30.7707 49.5859 30.4858C49.5973 30.201 49.603 29.9618 49.603 29.7681C49.603 28.492 49.5176 27.2729 49.3467 26.1108C49.1758 24.9601 48.965 23.9689 48.7144 23.1372H48.5776C48.3042 23.1372 48.0422 23.103 47.7915 23.0347C47.5522 22.9549 47.3358 22.8467 47.1421 22.71C46.9484 22.5732 46.7946 22.4137 46.6807 22.2314C46.5667 22.0492 46.5098 21.8498 46.5098 21.6333C46.5098 21.3257 46.6009 21.0636 46.7832 20.8472C46.9769 20.6307 47.2161 20.5225 47.501 20.5225C47.8542 20.5225 48.1903 20.6934 48.5093 21.0352C48.8283 21.3656 49.1188 21.8099 49.3809 22.3682C49.8366 22.1859 50.2524 21.8669 50.6284 21.4111C51.0158 20.9554 51.3633 20.4484 51.6709 19.8901C51.9785 19.3205 52.2463 18.7451 52.4741 18.1641C52.7134 17.583 52.9185 17.076 53.0894 16.6431L53.7559 16.814C53.5736 17.3039 53.3571 17.8621 53.1064 18.4888C52.8558 19.104 52.5653 19.7078 52.2349 20.3003C51.9045 20.8813 51.5228 21.4168 51.0898 21.9067C50.6683 22.3853 50.1841 22.7271 49.6372 22.9321C49.8195 23.4106 49.9847 23.929 50.1328 24.4873C50.2809 25.0342 50.4062 25.5981 50.5088 26.1792C50.6227 26.7603 50.7082 27.3413 50.7651 27.9224C50.8221 28.5034 50.8506 29.0674 50.8506 29.6143C50.8506 30.3434 50.7879 31.0213 50.6626 31.6479C50.5487 32.2746 50.3721 32.8158 50.1328 33.2715C49.9049 33.7386 49.6144 34.1032 49.2612 34.3652C48.9194 34.6273 48.515 34.7583 48.0479 34.7583C47.4212 34.7583 46.8857 34.6045 46.4414 34.2969C46.0085 34.0007 45.6439 33.6019 45.3477 33.1006C45.0514 32.5993 44.8179 32.0296 44.647 31.3916C44.4761 30.765 44.3451 30.1213 44.2539 29.4604C44.1742 28.7996 44.1229 28.1502 44.1001 27.5122C44.0773 26.8856 44.0659 26.3273 44.0659 25.8374C44.0659 24.7095 44.1172 23.4448 44.2197 22.0435C44.3223 20.6421 44.459 19.2065 44.6299 17.7368C44.8008 16.2671 44.9888 14.8145 45.1938 13.3789C45.4103 11.932 45.6211 10.599 45.8262 9.37988C46.0426 8.14941 46.2477 7.07845 46.4414 6.16699C46.6351 5.25553 46.8003 4.60042 46.937 4.20166C47.0282 3.91683 47.1478 3.6263 47.2959 3.33008C47.4554 3.03385 47.6434 2.76611 47.8599 2.52686C48.0763 2.2876 48.3213 2.09391 48.5947 1.9458C48.8796 1.79769 49.2043 1.72363 49.5688 1.72363C50.1955 1.72363 50.6911 1.92871 51.0557 2.33887C51.4316 2.74902 51.6196 3.31299 51.6196 4.03076ZM47.7744 5.43213C47.7174 5.72835 47.6377 6.17839 47.5352 6.78223C47.444 7.37467 47.3415 8.08105 47.2275 8.90137C47.125 9.71029 47.0111 10.6104 46.8857 11.6016C46.7604 12.5814 46.6351 13.5954 46.5098 14.6436C47.1364 13.5726 47.7174 12.5529 48.2529 11.5845C48.7884 10.6047 49.2498 9.67611 49.6372 8.79883C50.036 7.91016 50.3493 7.07845 50.5771 6.30371C50.805 5.51758 50.9189 4.77132 50.9189 4.06494C50.9189 3.60921 50.8164 3.21615 50.6113 2.88574C50.4176 2.55534 50.0929 2.39014 49.6372 2.39014C49.3068 2.39014 49.0277 2.50407 48.7998 2.73193C48.5833 2.9598 48.4067 3.23324 48.27 3.55225C48.1333 3.87126 48.0251 4.20736 47.9453 4.56055C47.877 4.90234 47.82 5.19287 47.7744 5.43213ZM47.2104 21.5991C47.2104 21.8156 47.3415 22.0207 47.6035 22.2144C47.877 22.3966 48.1903 22.4992 48.5435 22.522C48.384 22.089 48.2188 21.7586 48.0479 21.5308C47.8883 21.3029 47.7288 21.189 47.5693 21.189C47.4782 21.189 47.3927 21.2231 47.313 21.2915C47.2446 21.3599 47.2104 21.4624 47.2104 21.5991ZM56.8491 24.7607C56.2681 24.7607 55.7098 24.6582 55.1743 24.4531C54.6388 24.248 54.166 23.9404 53.7559 23.5303C53.3571 23.1087 53.0381 22.5846 52.7988 21.958C52.5596 21.3314 52.4399 20.5965 52.4399 19.7534C52.4399 18.728 52.5881 17.8166 52.8843 17.019C53.1805 16.2101 53.5565 15.5322 54.0122 14.9854C54.4793 14.4271 54.9977 14.0055 55.5674 13.7207C56.137 13.4245 56.6953 13.2764 57.2422 13.2764C57.9486 13.2764 58.5068 13.5099 58.917 13.9771C59.3385 14.4442 59.5493 15.048 59.5493 15.7886C59.5493 16.4266 59.4297 17.0076 59.1904 17.5317C58.9512 18.0444 58.6322 18.4888 58.2334 18.8647C57.846 19.2293 57.396 19.5142 56.8833 19.7192C56.382 19.9243 55.8579 20.0269 55.311 20.0269C55.049 20.0269 54.7983 20.0155 54.5591 19.9927C54.3312 19.9585 54.1261 19.9243 53.9438 19.8901C54.0122 20.5965 54.1489 21.2061 54.354 21.7188C54.5591 22.2314 54.8154 22.653 55.123 22.9834C55.4307 23.3138 55.7725 23.5588 56.1484 23.7183C56.5358 23.8778 56.9346 23.9575 57.3447 23.9575C57.8574 23.9575 58.3302 23.8322 58.7632 23.5815C59.1961 23.3309 59.5949 23.0062 59.9595 22.6074C60.3241 22.1973 60.6545 21.7301 60.9507 21.2061C61.2583 20.682 61.5317 20.1522 61.771 19.6167C62.0103 19.0698 62.221 18.54 62.4033 18.0273C62.597 17.5033 62.7679 17.0418 62.916 16.6431L63.5825 16.814C63.4344 17.1899 63.2578 17.6457 63.0527 18.1812C62.859 18.7166 62.6312 19.2806 62.3691 19.873C62.1071 20.4541 61.7995 21.0409 61.4463 21.6333C61.0931 22.2144 60.6943 22.7384 60.25 23.2056C59.8057 23.6613 59.2987 24.0373 58.729 24.3335C58.1707 24.6183 57.5441 24.7607 56.8491 24.7607ZM57.2764 13.9429C56.8548 13.9429 56.439 14.0796 56.0288 14.353C55.63 14.6151 55.2712 14.9797 54.9521 15.4468C54.6331 15.9139 54.3711 16.4665 54.166 17.1045C53.9723 17.7425 53.8755 18.4261 53.8755 19.1553C54.0236 19.2122 54.2287 19.2635 54.4907 19.3091C54.7642 19.3433 55.0946 19.3604 55.4819 19.3604C55.8921 19.3604 56.2965 19.2749 56.6953 19.104C57.1055 18.9217 57.4701 18.6768 57.7891 18.3691C58.1195 18.0501 58.3815 17.6742 58.5752 17.2412C58.7803 16.8083 58.8828 16.3354 58.8828 15.8228C58.8828 15.5721 58.8486 15.3328 58.7803 15.105C58.7119 14.8771 58.6094 14.6777 58.4727 14.5068C58.3359 14.3359 58.165 14.1992 57.96 14.0967C57.7663 13.9941 57.5384 13.9429 57.2764 13.9429ZM64.8813 23.2227C64.1636 23.2227 63.5654 22.9321 63.0869 22.3511C62.6198 21.77 62.3862 20.8927 62.3862 19.7192C62.3862 18.9445 62.54 17.959 62.8477 16.7627C63.1667 15.555 63.7135 14.1935 64.4883 12.6782L65.1206 12.8491C65.0522 13.1453 64.9383 13.5498 64.7788 14.0625C64.6307 14.5752 64.4769 15.1506 64.3174 15.7886C64.1693 16.4152 64.0382 17.076 63.9243 17.771C63.8104 18.4546 63.7534 19.1154 63.7534 19.7534C63.7534 20.2889 63.7933 20.7275 63.873 21.0693C63.9528 21.3997 64.0553 21.6618 64.1807 21.8555C64.3174 22.0378 64.4712 22.1631 64.6421 22.2314C64.8244 22.2998 65.0181 22.334 65.2231 22.334C65.5535 22.334 65.8669 22.2314 66.1631 22.0264C66.4593 21.8213 66.7384 21.5535 67.0005 21.2231C67.2739 20.8813 67.5246 20.5054 67.7524 20.0952C67.9917 19.6737 68.2025 19.2521 68.3848 18.8306C68.5785 18.409 68.7493 18.0103 68.8975 17.6343C69.0456 17.2469 69.1652 16.9165 69.2563 16.6431L69.9229 16.814C69.7975 17.1558 69.6494 17.5545 69.4785 18.0103C69.319 18.4546 69.131 18.916 68.9146 19.3945C68.7095 19.873 68.4759 20.3402 68.2139 20.7959C67.9518 21.2516 67.6556 21.6618 67.3252 22.0264C66.9948 22.3796 66.6245 22.6701 66.2144 22.8979C65.8156 23.1144 65.3713 23.2227 64.8813 23.2227ZM67.6499 7.29492C67.6499 7.69368 67.4961 8.0013 67.1885 8.21777C66.8809 8.43424 66.4935 8.54248 66.0264 8.54248C65.7871 8.54248 65.5592 8.5083 65.3428 8.43994C65.1377 8.36019 64.9554 8.26335 64.7959 8.14941C64.6478 8.02409 64.5282 7.88167 64.437 7.72217C64.3573 7.55127 64.3174 7.37467 64.3174 7.19238C64.3174 6.80501 64.4655 6.4917 64.7617 6.25244C65.0693 6.01318 65.4225 5.89355 65.8213 5.89355C66.1061 5.89355 66.3625 5.93913 66.5903 6.03027C66.8182 6.11003 67.0119 6.21826 67.1714 6.35498C67.3309 6.4917 67.4505 6.64551 67.5303 6.81641C67.61 6.97591 67.6499 7.13542 67.6499 7.29492ZM66.7271 7.29492C66.7271 7.18099 66.6758 7.07845 66.5732 6.9873C66.4821 6.88477 66.3397 6.8335 66.146 6.8335C65.7928 6.8335 65.6162 6.96452 65.6162 7.22656C65.6162 7.35189 65.6675 7.46012 65.77 7.55127C65.884 7.63102 66.0321 7.6709 66.2144 7.6709C66.3853 7.6709 66.5106 7.63672 66.5903 7.56836C66.6815 7.48861 66.7271 7.39746 66.7271 7.29492ZM69.2734 16.6431C69.4443 16.1987 69.6266 15.7772 69.8203 15.3784C70.0254 14.9683 70.2419 14.6094 70.4697 14.3018C70.6976 13.9941 70.9425 13.7492 71.2046 13.5669C71.478 13.3732 71.7799 13.2764 72.1104 13.2764C72.2699 13.2764 72.4521 13.3105 72.6572 13.3789C72.8623 13.4473 73.056 13.584 73.2383 13.7891C73.432 13.9941 73.5915 14.2904 73.7168 14.6777C73.8421 15.0651 73.9048 15.5778 73.9048 16.2158C73.9048 16.5462 73.8877 16.9108 73.8535 17.3096C73.8193 17.7083 73.7852 18.1014 73.751 18.4888C74.1042 17.7368 74.4517 17.1045 74.7935 16.5918C75.1466 16.0677 75.4884 15.6519 75.8188 15.3442C76.1606 15.0252 76.4967 14.7974 76.8271 14.6606C77.1576 14.5125 77.488 14.4385 77.8184 14.4385C77.9665 14.4385 78.1374 14.4727 78.3311 14.541C78.5361 14.6094 78.7241 14.729 78.895 14.8999C79.0773 15.0708 79.2254 15.3044 79.3394 15.6006C79.4647 15.8968 79.5273 16.2785 79.5273 16.7456C79.5273 17.1216 79.4989 17.4976 79.4419 17.8735C79.3849 18.2495 79.3223 18.6141 79.2539 18.9673C79.1855 19.3205 79.1229 19.6566 79.0659 19.9756C79.009 20.2832 78.9805 20.5566 78.9805 20.7959C78.9805 21.3656 79.083 21.8042 79.2881 22.1118C79.4932 22.408 79.8065 22.5562 80.228 22.5562C80.5698 22.5562 80.8945 22.4308 81.2021 22.1802C81.5098 21.9181 81.7946 21.5877 82.0566 21.189C82.3301 20.7902 82.575 20.3516 82.7915 19.873C83.0194 19.3945 83.2131 18.9388 83.3726 18.5059C83.5435 18.0615 83.6859 17.6742 83.7998 17.3438C83.9137 17.002 83.9935 16.7684 84.0391 16.6431L84.7056 16.814C84.5461 17.2127 84.3752 17.6571 84.1929 18.147C84.022 18.6255 83.8283 19.1097 83.6118 19.5996C83.3953 20.0895 83.1618 20.568 82.9111 21.0352C82.6605 21.4909 82.3813 21.8953 82.0737 22.2485C81.7661 22.6017 81.43 22.8866 81.0654 23.103C80.7122 23.3195 80.3192 23.4277 79.8862 23.4277C79.5216 23.4277 79.2026 23.3594 78.9292 23.2227C78.6672 23.0745 78.445 22.8809 78.2627 22.6416C78.0804 22.4023 77.9437 22.1175 77.8525 21.7871C77.7614 21.4567 77.7158 21.1035 77.7158 20.7275C77.7158 20.306 77.75 19.873 77.8184 19.4287C77.8981 18.9844 77.9779 18.5571 78.0576 18.147C78.1488 17.7368 78.2285 17.3608 78.2969 17.019C78.3766 16.6659 78.4165 16.3753 78.4165 16.1475C78.4165 15.7943 78.3481 15.5322 78.2114 15.3613C78.0747 15.179 77.8867 15.0879 77.6475 15.0879C77.3171 15.0879 76.9924 15.2075 76.6733 15.4468C76.3657 15.686 76.0638 16.005 75.7676 16.4038C75.4827 16.8026 75.2093 17.2583 74.9473 17.771C74.6852 18.2837 74.4403 18.8135 74.2124 19.3604C73.9959 19.8958 73.7909 20.4313 73.5972 20.9668C73.4149 21.5023 73.2554 21.9865 73.1187 22.4194C72.9819 22.8524 72.8623 23.2227 72.7598 23.5303C72.6686 23.8265 72.606 24.0145 72.5718 24.0942L71.5806 23.9233C71.7173 23.2511 71.8426 22.5448 71.9565 21.8042C72.0705 21.0522 72.1673 20.3174 72.2471 19.5996C72.3382 18.8704 72.4066 18.1755 72.4521 17.5146C72.5091 16.8538 72.5376 16.2671 72.5376 15.7544C72.5376 15.0594 72.492 14.5923 72.4009 14.353C72.3097 14.1024 72.1445 13.9771 71.9053 13.9771C71.7002 13.9771 71.5065 14.0568 71.3242 14.2163C71.1419 14.3644 70.971 14.5695 70.8115 14.8315C70.6634 15.0822 70.5153 15.3784 70.3672 15.7202C70.2191 16.062 70.0767 16.4266 69.9399 16.814L69.2734 16.6431ZM87.7817 24.7607C87.2007 24.7607 86.6424 24.6582 86.1069 24.4531C85.5715 24.248 85.0986 23.9404 84.6885 23.5303C84.2897 23.1087 83.9707 22.5846 83.7314 21.958C83.4922 21.3314 83.3726 20.5965 83.3726 19.7534C83.3726 18.728 83.5207 17.8166 83.8169 17.019C84.1131 16.2101 84.4891 15.5322 84.9448 14.9854C85.4119 14.4271 85.9303 14.0055 86.5 13.7207C87.0697 13.4245 87.6279 13.2764 88.1748 13.2764C88.8812 13.2764 89.4395 13.5099 89.8496 13.9771C90.2712 14.4442 90.4819 15.048 90.4819 15.7886C90.4819 16.4266 90.3623 17.0076 90.123 17.5317C89.8838 18.0444 89.5648 18.4888 89.166 18.8647C88.7786 19.2293 88.3286 19.5142 87.8159 19.7192C87.3146 19.9243 86.7905 20.0269 86.2437 20.0269C85.9816 20.0269 85.731 20.0155 85.4917 19.9927C85.2638 19.9585 85.0588 19.9243 84.8765 19.8901C84.9448 20.5965 85.0815 21.2061 85.2866 21.7188C85.4917 22.2314 85.748 22.653 86.0557 22.9834C86.3633 23.3138 86.7051 23.5588 87.0811 23.7183C87.4684 23.8778 87.8672 23.9575 88.2773 23.9575C88.79 23.9575 89.2629 23.8322 89.6958 23.5815C90.1287 23.3309 90.5275 23.0062 90.8921 22.6074C91.2567 22.1973 91.5871 21.7301 91.8833 21.2061C92.1909 20.682 92.4644 20.1522 92.7036 19.6167C92.9429 19.0698 93.1536 18.54 93.3359 18.0273C93.5296 17.5033 93.7005 17.0418 93.8486 16.6431L94.5151 16.814C94.367 17.1899 94.1904 17.6457 93.9854 18.1812C93.7917 18.7166 93.5638 19.2806 93.3018 19.873C93.0397 20.4541 92.7321 21.0409 92.3789 21.6333C92.0257 22.2144 91.627 22.7384 91.1826 23.2056C90.7383 23.6613 90.2313 24.0373 89.6616 24.3335C89.1034 24.6183 88.4767 24.7607 87.7817 24.7607ZM88.209 13.9429C87.7874 13.9429 87.3716 14.0796 86.9614 14.353C86.5627 14.6151 86.2038 14.9797 85.8848 15.4468C85.5658 15.9139 85.3037 16.4665 85.0986 17.1045C84.9049 17.7425 84.8081 18.4261 84.8081 19.1553C84.9562 19.2122 85.1613 19.2635 85.4233 19.3091C85.6968 19.3433 86.0272 19.3604 86.4146 19.3604C86.8247 19.3604 87.2292 19.2749 87.6279 19.104C88.0381 18.9217 88.4027 18.6768 88.7217 18.3691C89.0521 18.0501 89.3141 17.6742 89.5078 17.2412C89.7129 16.8083 89.8154 16.3354 89.8154 15.8228C89.8154 15.5721 89.7812 15.3328 89.7129 15.105C89.6445 14.8771 89.542 14.6777 89.4053 14.5068C89.2686 14.3359 89.0977 14.1992 88.8926 14.0967C88.6989 13.9941 88.471 13.9429 88.209 13.9429Z" fill="white"/>
</svg>
